<?xml version="1.0" encoding="UTF-8" standalone="no"?>
<svg
   xmlns:dc="http://purl.org/dc/elements/1.1/"
   xmlns:cc="http://creativecommons.org/ns#"
   xmlns:rdf="http://www.w3.org/1999/02/22-rdf-syntax-ns#"
   xmlns:svg="http://www.w3.org/2000/svg"
   xmlns="http://www.w3.org/2000/svg"
   xmlns:sodipodi="http://sodipodi.sourceforge.net/DTD/sodipodi-0.dtd"
   xmlns:inkscape="http://www.inkscape.org/namespaces/inkscape"
   version="1.1"
   viewBox="0 0 50.999998 50.999999"
   id="svg966"
   sodipodi:docname="Logo_CNF_Negativo.svg"
   width="51"
   height="51"
   inkscape:version="0.92.3 (2405546, 2018-03-11)">
  <sodipodi:namedview
     pagecolor="#ffffff"
     bordercolor="#666666"
     borderopacity="1"
     objecttolerance="10"
     gridtolerance="10"
     guidetolerance="10"
     inkscape:pageopacity="0"
     inkscape:pageshadow="2"
     inkscape:window-width="1366"
     inkscape:window-height="705"
     id="namedview23"
     showgrid="false"
     inkscape:zoom="5.1229174"
     inkscape:cx="10.811866"
     inkscape:cy="34.483354"
     inkscape:window-x="-8"
     inkscape:window-y="-8"
     inkscape:window-maximized="1"
     inkscape:current-layer="g117" />
  <metadata
     id="metadata100">
    <rdf:RDF>
      <cc:Work
         rdf:about="">
        <dc:format>image/svg+xml</dc:format>
        <dc:type
           rdf:resource="http://purl.org/dc/dcmitype/StillImage" />
        <dc:title>Logo CNF Negativo</dc:title>
      </cc:Work>
    </rdf:RDF>
  </metadata>
  <defs
     id="defs4">
    <style
       id="style2">.cls-1,.cls-9{fill:#2b76c5;}.cls-2,.cls-3{fill:#231f20;}.cls-10,.cls-11,.cls-13,.cls-3,.cls-5,.cls-6,.cls-7,.cls-9{fill-rule:evenodd;}.cls-4,.cls-7{fill:#393536;}.cls-5{fill:#5a5758;}.cls-6{fill:#8c8a8b;}.cls-11,.cls-8{fill:#2250a9;}.cls-10{fill:#f14624;}.cls-12,.cls-13{fill:#fff;}</style>
  </defs>
  <title
     id="title6">Logo CNF Negativo</title>
  <g
     transform="translate(-8.115547,-86.74)"
     id="g117">
    <g
       id="g858"
       transform="translate(5.0295351,8.135)">
      <path
         style="fill:#2b76c5;fill-opacity:1"
         id="path4130"
         class="cls-2"
         d="m 42.51,88.11 a 3.77,3.77 0 1 1 -3.77,-3.77 3.77,3.77 0 0 1 3.77,3.77"
         inkscape:connector-curvature="0" />
      <path
         style="fill:#2b76c5;fill-opacity:1"
         id="path4132"
         class="cls-2"
         d="m 28.55,84.32 a 5.47,5.47 0 1 1 -5.47,-5.49 5.47,5.47 0 0 1 5.47,5.46"
         inkscape:connector-curvature="0" />
      <path
         style="fill:#2b76c5;fill-opacity:1;fill-rule:evenodd"
         id="path4136"
         class="cls-3"
         d="m 14.09,118.51 h 0.14 c 0.89,-0.11 1.77,-0.23 2.63,-0.37 l 0.37,-0.06 c 0.94,-0.16 1.86,-0.34 2.77,-0.54 l 0.63,-0.14 c 0.9,-0.21 1.8,-0.44 2.68,-0.69 l 0.3,-0.09 c 0.83,-0.24 1.64,-0.51 2.44,-0.78 l 0.28,-0.1 -0.92,-0.49 -0.6,-0.31 q -0.66,-0.36 -1.29,-0.75 A 3.37,3.37 0 0 1 23.2,114 c -0.53,-0.32 -1,-0.66 -1.54,-1 l -0.23,-0.17 c -0.41,-0.29 -0.8,-0.58 -1.18,-0.88 -0.15,-0.11 -0.3,-0.24 -0.44,-0.36 -0.3,-0.24 -0.6,-0.48 -0.88,-0.73 l -0.46,-0.43 c -0.25,-0.23 -0.5,-0.46 -0.74,-0.7 l -0.45,-0.47 -0.65,-0.7 -0.42,-0.51 -0.56,-0.7 -0.39,-0.52 c -0.16,-0.24 -0.33,-0.48 -0.48,-0.72 -0.15,-0.24 -0.23,-0.36 -0.34,-0.54 -0.11,-0.18 -0.28,-0.49 -0.42,-0.73 l -0.29,-0.56 c -0.12,-0.25 -0.23,-0.5 -0.34,-0.75 l -0.24,-0.56 Q 13,102.58 12.88,102.19 c -0.06,-0.18 -0.13,-0.37 -0.18,-0.55 -0.05,-0.18 -0.15,-0.55 -0.21,-0.82 -0.06,-0.27 -0.09,-0.36 -0.12,-0.54 -0.03,-0.18 -0.1,-0.6 -0.14,-0.91 0,-0.15 -0.05,-0.3 -0.06,-0.45 A 12.75,12.75 0 0 1 12.1,97.54 c 0,-0.53 0,-1.06 0.09,-1.58 0,-0.13 0,-0.25 0,-0.38 0.07,-0.51 0.16,-1 0.28,-1.52 a 10.37,10.37 0 0 0 -2.44,3 c -2.64,4.84 -2,13.32 4,21.51"
         inkscape:connector-curvature="0" />
      <path
         style="fill:#2b76c5;fill-opacity:1;fill-rule:evenodd"
         id="path4138"
         class="cls-3"
         d="m 31.91,115.83 c 0.77,0.28 1.55,0.54 2.34,0.77 l 0.17,0.06 c 0.83,0.25 1.69,0.47 2.55,0.68 l 0.57,0.13 c 0.86,0.2 1.73,0.38 2.62,0.54 l 0.34,0.05 c 0.82,0.14 1.66,0.27 2.5,0.38 h 0.12 c 4.22,-5 7.07,-11.38 4.56,-18 a 13.37,13.37 0 0 0 -1.25,-2.2 v 0 c 0,0.11 0,0.23 0,0.35 a 13,13 0 0 1 -0.22,1.39 c 0,0.08 0,0.16 0,0.23 -0.09,0.38 -0.18,0.77 -0.3,1.15 0,0.15 -0.11,0.3 -0.16,0.46 -0.05,0.16 -0.2,0.6 -0.32,0.89 -0.12,0.29 -0.15,0.35 -0.23,0.52 -0.08,0.17 -0.24,0.54 -0.38,0.81 -0.14,0.27 -0.19,0.36 -0.29,0.54 -0.1,0.18 -0.29,0.51 -0.45,0.77 l -0.34,0.53 -0.51,0.74 -0.4,0.53 c -0.19,0.24 -0.38,0.48 -0.58,0.71 l -0.45,0.52 c -0.21,0.24 -0.43,0.47 -0.65,0.7 -0.22,0.23 -0.33,0.33 -0.5,0.5 l -0.72,0.67 -0.53,0.48 -0.82,0.66 c -0.18,0.15 -0.36,0.3 -0.55,0.44 -0.19,0.14 -0.62,0.46 -0.94,0.68 -0.32,0.22 -0.35,0.26 -0.54,0.38 -0.41,0.28 -0.84,0.56 -1.28,0.83 l -0.29,0.18 c -0.54,0.32 -1.09,0.64 -1.66,0.94 l -0.7,0.35 c -0.31,0.16 -0.61,0.33 -0.93,0.48 l 0.29,0.1"
         inkscape:connector-curvature="0" />
      <path
         style="fill:#2b76c5;fill-opacity:1;fill-rule:evenodd"
         id="path4140"
         class="cls-3"
         d="m 15.7,92.35 c -0.18,0 -0.35,0.12 -0.53,0.18 -0.18,0.06 -0.16,0.37 -0.23,0.56 -0.07,0.19 -0.19,0.59 -0.28,0.89 -0.09,0.3 -0.12,0.38 -0.16,0.57 -0.04,0.19 -0.13,0.66 -0.19,1 0,0.16 -0.06,0.32 -0.08,0.48 a 12.41,12.41 0 0 0 -0.09,1.49 q 0,0.63 0.06,1.26 c 0,0.14 0,0.28 0.07,0.42 0.07,0.14 0.07,0.56 0.13,0.83 0.06,0.27 0.09,0.35 0.13,0.53 0.04,0.18 0.12,0.48 0.19,0.71 0.07,0.23 0.14,0.38 0.2,0.57 0.06,0.19 0.15,0.44 0.24,0.66 l 0.27,0.57 c 0.1,0.21 0.19,0.42 0.3,0.63 0.11,0.21 0.22,0.39 0.34,0.59 0.12,0.2 0.22,0.4 0.34,0.59 0.12,0.19 0.27,0.4 0.41,0.59 0.14,0.19 0.25,0.38 0.39,0.57 l 0.47,0.58 c 0.15,0.18 0.29,0.37 0.44,0.54 0.15,0.17 0.35,0.39 0.53,0.58 0.18,0.19 0.32,0.35 0.49,0.52 l 0.59,0.56 0.54,0.5 0.65,0.54 c 0.2,0.16 0.38,0.32 0.59,0.48 0.21,0.16 0.46,0.35 0.7,0.52 0.24,0.17 0.41,0.31 0.63,0.46 l 0.76,0.5 0.68,0.44 0.8,0.47 0.73,0.42 0.84,0.44 0.79,0.4 0.87,0.41 0.66,0.3 0.77,-0.34 0.82,-0.37 0.92,-0.46 c 0.26,-0.13 0.53,-0.26 0.78,-0.4 0.25,-0.14 0.57,-0.32 0.86,-0.48 l 0.74,-0.42 0.8,-0.51 0.7,-0.45 c 0.26,-0.17 0.5,-0.35 0.74,-0.53 0.24,-0.18 0.45,-0.31 0.65,-0.47 0.2,-0.16 0.46,-0.37 0.69,-0.55 0.23,-0.18 0.41,-0.32 0.6,-0.49 l 0.63,-0.57 c 0.18,-0.17 0.38,-0.34 0.55,-0.51 l 0.57,-0.59 c 0.17,-0.18 0.34,-0.35 0.5,-0.53 0.16,-0.18 0.34,-0.4 0.51,-0.61 l 0.44,-0.54 c 0.16,-0.21 0.3,-0.42 0.44,-0.63 0.14,-0.21 0.27,-0.36 0.39,-0.55 0.12,-0.19 0.26,-0.43 0.39,-0.65 l 0.32,-0.55 c 0.12,-0.23 0.22,-0.45 0.33,-0.68 0.11,-0.23 0.18,-0.37 0.26,-0.55 0.08,-0.18 0.18,-0.48 0.27,-0.71 0.09,-0.23 0.14,-0.36 0.2,-0.54 0.06,-0.18 0.13,-0.5 0.2,-0.75 0.07,-0.25 0.1,-0.35 0.13,-0.52 a 7.91,7.91 0 0 0 0.13,-0.85 3.21,3.21 0 0 0 0.07,-0.43 11.15,11.15 0 0 0 0.07,-1.29 c 0,-0.31 0,-0.63 -0.06,-0.94 l -0.26,-0.17 a 6.36,6.36 0 0 0 -4.07,-0.81 17.1,17.1 0 0 0 -5.37,2.39 l -0.53,0.34 c -1.48,0.94 -2.54,1.62 -3.83,1.62 -1.83,0 -3.6,-1.43 -6.41,-4.25 a 13.8,13.8 0 0 0 -4,-2.84 7.61,7.61 0 0 0 -4.26,-0.16"
         inkscape:connector-curvature="0" />
      <path
         style="fill:#2b76c5;fill-opacity:1;fill-rule:evenodd"
         id="path4142"
         class="cls-3"
         d="m 28.57,129.38 c 1.66,-0.27 7.84,-3.79 12.9,-9.08 -1,-0.14 -1.9,-0.31 -2.83,-0.5 l -0.53,-0.1 c -1,-0.2 -1.89,-0.43 -2.81,-0.67 l -0.52,-0.14 c -0.94,-0.26 -1.87,-0.54 -2.78,-0.85 l -0.18,-0.06 c -0.88,-0.3 -1.73,-0.62 -2.57,-1 l -0.28,-0.11 v 0 l -0.25,0.09 c -0.93,0.37 -1.88,0.72 -2.85,1 h -0.13 c -1,0.32 -2,0.6 -3,0.87 l -0.53,0.14 c -1,0.25 -2,0.47 -3,0.67 l -0.6,0.12 c -1,0.18 -2,0.35 -3,0.49 4.34,5.13 10,8.37 13,9"
         inkscape:connector-curvature="0" />
    </g>
  </g>
</svg>
